  <svg version="1.1" xmlns="http://www.w3.org/2000/svg" xmlns:xlink="http://www.w3.org/1999/xlink" x="0px" y="0px" viewBox="0 0 160.4 119" style="enable-background:new 0 0 160.4 119;" xml:space="preserve">
   <g>
    <g>
     <path style="fill:#FF787E;" d="M66,14c-76-55.4-99.2,69,0,100C165.2,83.1,142-41.4,66,14z">
     </path>
    </g>
    <g>
     <path style="fill:#D0E2FF;" d="M160.1,42.5c-17-0.7-31-8.6-40.3-12.2c-9.3,3.6-23.3,11.4-40.3,12.2c-0.4,13.7,0.6,60.8,40.3,76.2
			C159.5,103.3,160.5,56.2,160.1,42.5z">
     </path>
     <path style="fill:#D0E2FF;" d="M119.8,119l-0.1,0c-17-6.6-28.9-19.7-35.4-38.9c-5-14.9-5.4-29.9-5.1-37.6l0-0.3l0.3,0
			c13.4-0.6,25.2-5.7,33.8-9.4c2.3-1,4.5-2,6.4-2.7l0.1,0l0.1,0c1.9,0.7,4.1,1.7,6.4,2.7c8.6,3.7,20.4,8.9,33.8,9.4l0.3,0l0,0.3
			c0.2,7.6-0.1,22.6-5.1,37.6c-6.4,19.2-18.3,32.3-35.4,38.9L119.8,119z M79.7,42.8c-0.2,7.7,0.2,22.4,5.1,37.1
			c6.4,19,18.1,32,34.9,38.5c16.8-6.6,28.6-19.5,34.9-38.5c4.9-14.7,5.3-29.4,5.1-37.1c-13.4-0.6-25.1-5.7-33.7-9.5
			c-2.3-1-4.4-1.9-6.3-2.7c-1.9,0.7-4,1.7-6.3,2.7C104.9,37.1,93.1,42.2,79.7,42.8z">
     </path>
    </g>
    <g style="opacity:0.2;">
     <path style="fill:#FFFFFF;" d="M152.4,47.6c-13.8-0.6-25.1-7.2-32.6-10.2c-7.5,3-18.8,9.6-32.6,10.2c-0.3,11.6,0.5,51.2,32.6,64.2
			C151.8,98.7,152.7,59.1,152.4,47.6z">
     </path>
    </g>
    <g>
     <circle style="fill:#EDF3FF;" cx="119.8" cy="72.3" r="21.2">
     </circle>
    </g>
    <g>
     <polygon style="fill:#FFFFFF;" points="133.4,70.1 123.6,70.1 123.6,60.3 117.3,60.3 117.3,70.1 107.5,70.1 107.5,76.4 
			117.3,76.4 117.3,86.2 123.6,86.2 123.6,76.4 133.4,76.4 		">
     </polygon>
    </g>
    <g>
     <polygon style="fill:#FF787E;" points="132.1,68.2 122.2,68.2 122.2,58.3 116,58.3 116,68.2 106.1,68.2 106.1,74.4 116,74.4 
			116,84.2 122.2,84.2 122.2,74.4 132.1,74.4 		">
     </polygon>
    </g>
   </g>
  </svg>
